<svg width="96" height="96" viewBox="0 0 96 96" fill="none" xmlns="http://www.w3.org/2000/svg">
<g filter="url(#filter0_d)">
<g filter="url(#filter1_b)">
<rect x="20" y="10" width="56" height="56" rx="12" fill="white"/>
</g>
</g>
<g filter="url(#filter2_b)">
<rect x="25.832" y="15.8335" width="44.3333" height="44.3333" rx="12" fill="#265AA6" fill-opacity="0.05"/>
</g>
<path d="M40.6262 40.4621C40.1957 40.7175 39.9062 41.1868 39.9062 41.7227C39.9062 42.5304 40.5634 43.1875 41.3711 43.1875C42.0076 43.1875 42.5504 42.7792 42.752 42.2109H46.5469C47.3546 42.2109 48.0117 42.8681 48.0117 43.6758C48.0117 44.4835 47.3546 45.1406 46.5469 45.1406H40.6875C39.3413 45.1406 38.2461 46.2358 38.2461 47.582C38.2461 48.9282 39.3413 50.0234 40.6875 50.0234H45.5703C45.84 50.0234 46.0586 49.8048 46.0586 49.5352C46.0586 49.2655 45.84 49.0469 45.5703 49.0469H40.6875C39.8798 49.0469 39.2227 48.3897 39.2227 47.582C39.2227 46.7743 39.8798 46.1172 40.6875 46.1172H46.5469C47.8931 46.1172 48.9883 45.022 48.9883 43.6758C48.9883 42.3296 47.8931 41.2344 46.5469 41.2344H42.752C42.6365 40.9088 42.409 40.6359 42.116 40.4621L45.8454 34.3432C46.4321 33.4613 46.7422 32.4338 46.7422 31.3711C46.7422 28.4095 44.3327 26 41.3711 26C38.4095 26 36 28.4095 36 31.3711C36 32.4338 36.3101 33.4613 36.8968 34.3432L40.6262 40.4621ZM41.3711 42.2109C41.1019 42.2109 40.8828 41.9919 40.8828 41.7227C40.8828 41.4534 41.1019 41.2344 41.3711 41.2344C41.6403 41.2344 41.8594 41.4534 41.8594 41.7227C41.8594 41.9919 41.6403 42.2109 41.3711 42.2109ZM41.3711 26.9766C43.7942 26.9766 45.7656 28.9479 45.7656 31.3711C45.7656 32.2436 45.5104 33.0867 45.0276 33.8093C45.0238 33.8149 45.0202 33.8207 45.0167 33.8265L41.3711 39.8079C41.3711 39.8079 37.7184 33.8149 37.7146 33.8093C37.2318 33.0867 36.9766 32.2436 36.9766 31.3711C36.9766 28.9479 38.9479 26.9766 41.3711 26.9766Z" fill="#265AA6"/>
<path d="M41.3711 33.8125C42.7173 33.8125 43.8125 32.7173 43.8125 31.3711C43.8125 30.0249 42.7173 28.9297 41.3711 28.9297C40.0249 28.9297 38.9297 30.0249 38.9297 31.3711C38.9297 32.7173 40.0249 33.8125 41.3711 33.8125ZM41.3711 29.9062C42.1788 29.9062 42.8359 30.5634 42.8359 31.3711C42.8359 32.1788 42.1788 32.8359 41.3711 32.8359C40.5634 32.8359 39.9062 32.1788 39.9062 31.3711C39.9062 30.5634 40.5634 29.9062 41.3711 29.9062Z" fill="#265AA6"/>
<path d="M55.6289 34.1055C52.6673 34.1055 50.2578 36.5149 50.2578 39.4766C50.2578 40.541 50.5689 41.5701 51.1574 42.4528L54.8729 48.281C54.5852 48.455 54.3621 48.7253 54.2481 49.0469H49.9648C49.6952 49.0469 49.4766 49.2655 49.4766 49.5352C49.4766 49.8048 49.6952 50.0234 49.9648 50.0234H54.248C54.4496 50.5917 54.9923 51 55.6289 51C56.4366 51 57.0938 50.3429 57.0938 49.5352C57.0938 49.0039 56.8094 48.5378 56.385 48.281L60.1004 42.4528C60.6889 41.5701 61 40.541 61 39.4766C61 36.5149 58.5905 34.1055 55.6289 34.1055ZM55.6289 50.0234C55.3597 50.0234 55.1406 49.8044 55.1406 49.5352C55.1406 49.2659 55.3597 49.0469 55.6289 49.0469C55.8981 49.0469 56.1172 49.2659 56.1172 49.5352C56.1172 49.8044 55.8981 50.0234 55.6289 50.0234ZM59.2854 41.9148C59.2835 41.9177 55.6289 47.6502 55.6289 47.6502C55.6289 47.6502 51.9743 41.9177 51.9724 41.9148C51.4896 41.1921 51.2344 40.349 51.2344 39.4766C51.2344 37.0534 53.2058 35.082 55.6289 35.082C58.0521 35.082 60.0234 37.0534 60.0234 39.4766C60.0234 40.349 59.7682 41.1921 59.2854 41.9148Z" fill="#265AA6"/>
<path d="M55.6289 37.0352C54.2827 37.0352 53.1875 38.1304 53.1875 39.4766C53.1875 40.8228 54.2827 41.918 55.6289 41.918C56.9751 41.918 58.0703 40.8228 58.0703 39.4766C58.0703 38.1304 56.9751 37.0352 55.6289 37.0352ZM55.6289 40.9414C54.8212 40.9414 54.1641 40.2843 54.1641 39.4766C54.1641 38.6688 54.8212 38.0117 55.6289 38.0117C56.4366 38.0117 57.0938 38.6688 57.0938 39.4766C57.0938 40.2843 56.4366 40.9414 55.6289 40.9414Z" fill="#265AA6"/>
<path d="M47.7695 50.0234C48.0392 50.0234 48.2578 49.8048 48.2578 49.5352C48.2578 49.2655 48.0392 49.0469 47.7695 49.0469C47.4999 49.0469 47.2812 49.2655 47.2812 49.5352C47.2812 49.8048 47.4999 50.0234 47.7695 50.0234Z" fill="#265AA6"/>
<defs>
<filter id="filter0_d" x="0" y="0" width="96" height="96" filterUnits="userSpaceOnUse" color-interpolation-filters="sRGB">
<feFlood flood-opacity="0" result="BackgroundImageFix"/>
<feColorMatrix in="SourceAlpha" type="matrix" values="0 0 0 0 0 0 0 0 0 0 0 0 0 0 0 0 0 0 127 0"/>
<feOffset dy="10"/>
<feGaussianBlur stdDeviation="10"/>
<feColorMatrix type="matrix" values="0 0 0 0 0.116252 0 0 0 0 0.0365799 0 0 0 0 0.204167 0 0 0 0.12 0"/>
<feBlend mode="normal" in2="BackgroundImageFix" result="effect1_dropShadow"/>
<feBlend mode="normal" in="SourceGraphic" in2="effect1_dropShadow" result="shape"/>
</filter>
<filter id="filter1_b" x="0" y="-10" width="96" height="96" filterUnits="userSpaceOnUse" color-interpolation-filters="sRGB">
<feFlood flood-opacity="0" result="BackgroundImageFix"/>
<feGaussianBlur in="BackgroundImage" stdDeviation="10"/>
<feComposite in2="SourceAlpha" operator="in" result="effect1_backgroundBlur"/>
<feBlend mode="normal" in="SourceGraphic" in2="effect1_backgroundBlur" result="shape"/>
</filter>
<filter id="filter2_b" x="5.83203" y="-4.1665" width="84.3333" height="84.3333" filterUnits="userSpaceOnUse" color-interpolation-filters="sRGB">
<feFlood flood-opacity="0" result="BackgroundImageFix"/>
<feGaussianBlur in="BackgroundImage" stdDeviation="10"/>
<feComposite in2="SourceAlpha" operator="in" result="effect1_backgroundBlur"/>
<feBlend mode="normal" in="SourceGraphic" in2="effect1_backgroundBlur" result="shape"/>
</filter>
</defs>
</svg>
