<svg width="599" height="420" viewBox="0 0 599 420" fill="none" xmlns="http://www.w3.org/2000/svg">
<path d="M180.124 420.386C156.469 420.386 133.047 415.705 111.193 406.61C89.3393 397.515 69.4825 384.184 52.7565 367.378C36.0304 350.573 22.7627 330.621 13.7107 308.664C4.65875 286.706 -0.000189441 263.172 5.77741e-09 239.406C5.77741e-09 191.407 18.9773 145.374 52.757 111.434C86.5367 77.4941 132.352 58.4268 180.124 58.4268V420.386Z" fill="#E9E9E9" fill-opacity="0.2"/>
<path d="M389.062 239.414C365.408 239.414 341.985 244.095 320.132 253.19C298.278 262.285 278.421 275.616 261.695 292.422C244.969 309.228 231.701 329.179 222.649 351.136C213.597 373.094 208.938 396.628 208.938 420.394H389.062V239.414Z" fill="#E9E9E9" fill-opacity="0.2"/>
<path d="M208.938 -237C256.709 -237 302.525 -217.933 336.305 -183.993C370.084 -150.053 389.062 -104.02 389.062 -56.0211C389.063 -32.2542 384.404 -8.7198 375.352 13.2382C366.301 35.1961 353.033 55.1477 336.306 71.9536C319.58 88.7595 299.723 102.091 277.869 111.186C256.015 120.281 232.592 124.962 208.938 124.962V-237Z" fill="#E9E9E9" fill-opacity="0.2"/>
<path d="M598.001 284.686C598 236.687 579.022 190.655 545.242 156.716C511.462 122.777 465.646 103.71 417.875 103.711V284.686H598.001Z" fill="#E9E9E9" fill-opacity="0.2"/>
</svg>
