<svg width="18" height="18" viewBox="0 0 18 18" fill="none" xmlns="http://www.w3.org/2000/svg">
<path d="M3.92997 0.287869C3.22576 -0.101359 2.39893 -0.0923595 1.69922 0.293494L9.90001 7.85869L12.655 5.10372L3.92997 0.287869Z" fill="white"/>
<path d="M0.877482 1.06744C0.677244 1.3948 0.5625 1.7694 0.5625 2.16651V15.83C0.5625 16.2147 0.667119 16.5814 0.856108 16.902L9.10302 8.65514L0.877482 1.06744Z" fill="white"/>
<path d="M16.3074 7.1196L13.6795 5.66956L10.7266 8.62139L14.3455 11.9591L16.3085 10.8758C17.015 10.4843 17.4379 9.78232 17.4379 8.99712C17.4368 8.21191 17.015 7.50995 16.3074 7.1196Z" fill="white"/>
<path d="M9.92956 9.41785L1.66016 17.6873C2.01901 17.892 2.41274 18 2.80872 18C3.19119 18 3.57592 17.9032 3.92803 17.7086L13.3066 12.5328L9.92956 9.41785Z" fill="white"/>
</svg>
