<svg width="70" height="98" viewBox="0 0 70 98" fill="none" xmlns="http://www.w3.org/2000/svg">
<g clip-path="url(#clip0)">
<path d="M24.8374 56.2039C22.815 56.2039 20.8125 55.8037 18.9441 55.0261C17.0757 54.2485 15.378 53.1088 13.948 51.6719C12.518 50.2351 11.3836 48.5294 10.6097 46.6521C9.83581 44.7748 9.43748 42.7628 9.4375 40.7308C9.4375 36.6271 11.06 32.6915 13.948 29.7897C16.836 26.888 20.7531 25.2578 24.8374 25.2578V56.2039Z" fill="#7F5CA3"/>
<path d="M42.7008 40.7314C40.6784 40.7314 38.6758 41.1317 36.8074 41.9093C34.939 42.6869 33.2413 43.8266 31.8113 45.2634C30.3813 46.7002 29.247 48.406 28.473 50.2832C27.6991 52.1605 27.3008 54.1726 27.3008 56.2045H42.7008V40.7314Z" fill="#7F5CA3"/>
<path d="M27.3008 0C31.3851 -1.31607e-10 35.3021 1.63018 38.1902 4.53192C41.0782 7.43367 42.7007 11.3693 42.7008 15.473C42.7008 17.505 42.3025 19.5171 41.5286 21.3944C40.7547 23.2717 39.6204 24.9775 38.1903 26.4143C36.7603 27.8512 35.0626 28.9909 33.1942 29.7685C31.3257 30.5461 29.3232 30.9463 27.3008 30.9463V0Z" fill="#7F5CA3"/>
<path d="M60.5641 44.6025C60.564 40.4988 58.9415 36.5633 56.0534 33.6616C53.1653 30.7599 49.2483 29.1298 45.1641 29.1299V44.6025H60.5641Z" fill="#7F5CA3"/>
<path d="M18.918 85.5489V97.6093H13.3631V86.9148C13.3631 83.7143 12.586 82.1919 10.333 82.1919C7.69154 82.1919 5.47727 84.573 5.47727 91.7936V97.6092H0V69.8975H5.47727V82.9341C6.13762 81.0216 7.92452 77.7046 12.3919 77.7046C16.4324 77.7036 18.918 80.0845 18.918 85.5489Z" fill="#7F5CA3"/>
<path d="M40.5948 84.4562V97.6097H35.5835V95.4241C34.962 96.2436 33.214 98 29.3682 98C25.4059 98 22.5312 96.0484 22.5312 92.6529C22.5312 88.5545 25.6 86.9153 31.3882 86.1737C34.6124 85.7445 35.5835 85.237 35.5835 83.949C35.5835 82.5828 34.2628 81.8024 32.5923 81.8024C30.1062 81.8024 28.902 82.9732 28.7072 85.0809H23.5018C23.5796 81.5682 26.2211 77.7432 32.3589 77.7432C37.3704 77.7432 40.5948 79.9288 40.5948 84.4562ZM35.5835 89.4131V88.5155C34.7289 88.9838 33.4469 89.2962 32.0485 89.5688C28.9797 90.1152 28.0085 90.9739 28.0085 92.3008C28.0085 93.667 29.1739 94.2915 30.6889 94.2915C32.8644 94.2921 35.5835 92.9651 35.5835 89.4131Z" fill="#7F5CA3"/>
<path d="M60.4817 93.1605V97.6101H43.8945V94.5658L53.3341 82.4662H44.5549V78.0947H60.2095V81.4124L51.0418 93.1602L60.4817 93.1605Z" fill="#7F5CA3"/>
<path d="M64.4062 97.6093V69.8975H70.0001V97.6093H64.4062Z" fill="#7F5CA3"/>
</g>
<defs>
<clipPath id="clip0">
<rect width="70" height="98" fill="white"/>
</clipPath>
</defs>
</svg>
