<svg width="208" height="201" viewBox="0 0 208 201" fill="none" xmlns="http://www.w3.org/2000/svg">
<rect width="146.696" height="175.542" rx="40" transform="matrix(-0.989776 -0.142629 -0.142629 0.989776 207.504 26.3195)" fill="url(#paint0_linear)"/>
<rect x="-3.96342" y="2.96502" width="139.696" height="168.542" rx="36.5" transform="matrix(-0.989776 -0.142629 -0.142629 0.989776 163.744 20.5505)" fill="url(#paint1_linear)"/>
<rect x="-3.96342" y="2.96502" width="139.696" height="168.542" rx="36.5" transform="matrix(-0.989776 -0.142629 -0.142629 0.989776 163.744 20.5505)" stroke="url(#paint2_linear)" stroke-width="7"/>
<rect x="-3.96342" y="2.96502" width="139.696" height="168.542" rx="36.5" transform="matrix(-0.989776 -0.142629 -0.142629 0.989776 163.744 20.5505)" stroke="url(#paint3_linear)" stroke-width="7"/>
<g filter="url(#filter0_d)">
<g clip-path="url(#clip0)">
<path d="M114.117 71.3475L102.854 133.398C102.034 137.917 97.694 140.928 93.1804 140.109L58.299 133.777C53.7854 132.958 50.7804 128.614 51.6008 124.094L62.8637 62.0443C63.6841 57.5246 68.024 54.5141 72.5376 55.3334L107.419 61.6648C111.933 62.4841 114.938 66.8278 114.117 71.3475Z" fill="#A58DBF"/>
<path d="M114.114 71.3471L102.851 133.397C102.031 137.917 97.6908 140.927 93.1772 140.108L90.113 139.552C94.6266 140.371 98.9665 137.361 99.7868 132.841L111.05 70.7909C111.87 66.2712 108.865 61.9276 104.352 61.1083L107.416 61.6645C111.929 62.4837 114.934 66.8274 114.114 71.3471Z" fill="#714C97"/>
<path d="M109.557 70.3241L98.225 132.754C97.8606 134.761 95.934 136.099 93.9285 135.735L59.1268 129.418C57.1213 129.054 55.7876 127.124 56.1519 125.117L67.4838 62.6873C67.8481 60.6802 69.7747 59.3429 71.7802 59.7069L75.4128 60.3663C75.9108 60.4567 76.2951 60.8588 76.3621 61.3615L76.7545 64.3178C76.8522 65.0525 77.405 65.6339 78.1328 65.766L98.5052 69.4639C99.2314 69.5957 99.9548 69.2459 100.304 68.5924L101.711 65.9627C101.95 65.5155 102.45 65.2739 102.949 65.3645L106.582 66.0239C108.587 66.3879 109.921 68.317 109.557 70.3241Z" fill="#E7D8F5"/>
<path d="M109.563 70.3244L98.2307 132.755C97.8664 134.762 95.9397 136.099 93.9342 135.735L90.87 135.179C92.8755 135.543 94.8021 134.205 95.1664 132.198L106.498 69.7682C106.863 67.7612 105.529 65.832 103.523 65.468L106.588 66.0242C108.593 66.3882 109.927 68.3174 109.563 70.3244Z" fill="#CCBEDA"/>
<path d="M95.5867 62.9969L83.1413 60.7379C82.5067 60.6227 81.8988 61.0438 81.7836 61.6784C81.6684 62.313 82.0895 62.9208 82.7241 63.036L95.1696 65.295C95.8042 65.4102 96.412 64.9891 96.5272 64.3545C96.6424 63.7199 96.2213 63.1121 95.5867 62.9969Z" fill="#E7D8F5"/>
<path d="M73.7309 74.652L71.6279 86.2377C71.2764 88.1743 69.4152 89.465 67.4802 89.1137L52.579 86.409L45.6845 89.9179C45.4524 90.0372 45.193 90.0709 44.9464 90.0261C44.7717 89.9944 44.604 89.9244 44.4579 89.814C44.1022 89.55 43.9266 89.1051 44.0059 88.6684L47.417 69.8757C47.7685 67.9391 49.6297 66.6484 51.5647 66.9997L70.8585 70.5017C72.7936 70.853 74.0824 72.7154 73.7309 74.652Z" fill="#A984CE"/>
<path d="M73.7295 74.652L71.6266 86.2377C71.2751 88.1743 69.4139 89.465 67.4789 89.1137L64.4146 88.5575C66.3497 88.9088 68.2109 87.6181 68.5624 85.6815L70.6653 74.0958C71.0169 72.1592 69.728 70.2968 67.793 69.9456L70.8572 70.5018C72.7922 70.853 74.0811 72.7154 73.7295 74.652Z" fill="#714C97"/>
<path d="M66.3408 75.3271L54.1022 73.1057C53.4676 72.9905 52.8597 73.4116 52.7446 74.0462C52.6294 74.6808 53.0505 75.2886 53.6851 75.4038L65.9236 77.6253C66.5582 77.7405 67.1661 77.3194 67.2813 76.6848C67.3965 76.0502 66.9755 75.4424 66.3408 75.3271Z" fill="white"/>
<path d="M63.8658 80.2586L53.1569 78.3148C52.5223 78.1996 51.9144 78.6207 51.7992 79.2553C51.6841 79.8899 52.1051 80.4977 52.7397 80.6129L63.4485 82.5567C64.0831 82.6719 64.691 82.2508 64.8062 81.6162C64.9214 80.9816 64.5004 80.3738 63.8658 80.2586Z" fill="white"/>
<path d="M125.152 88.0228L119.121 121.246C118.772 123.172 116.92 124.455 114.994 124.106L99.2502 121.248L93.9226 125.924C93.6553 126.159 93.2939 126.258 92.9431 126.194C92.5938 126.131 92.2902 125.911 92.1224 125.598L88.7783 119.347L73.0344 116.489C71.1085 116.14 69.8257 114.288 70.1752 112.362L76.2058 79.1385C76.5556 77.2111 78.4072 75.9298 80.333 76.2793L122.293 83.8956C124.219 84.2451 125.502 86.0954 125.152 88.0228Z" fill="#A58DBF"/>
<path d="M105.548 97.1182C104.038 94.9375 101.032 94.3938 98.8486 95.9064L98.3819 96.2297L98.0587 95.763C97.3261 94.7055 96.2261 93.9961 94.9612 93.7655L94.9576 93.7649C93.6936 93.5354 92.4161 93.8117 91.3606 94.5429C90.3038 95.2749 89.5959 96.3751 89.3672 97.6406C89.1385 98.9059 89.4162 100.185 90.1487 101.243L95.5082 108.98C95.6258 109.149 95.8059 109.265 96.0091 109.302C96.2123 109.339 96.4218 109.294 96.5914 109.176L104.328 103.817C106.512 102.304 107.059 99.299 105.548 97.1182Z" fill="white"/>
<path d="M79.8726 105.312L84.7972 106.206C85.432 106.321 86.0397 105.9 86.1549 105.265C86.27 104.631 85.8491 104.023 85.2143 103.908L80.2897 103.014C79.655 102.899 79.0472 103.32 78.9321 103.954C78.8169 104.589 79.238 105.197 79.8726 105.312Z" fill="white" fill-opacity="0.55"/>
<path d="M87.3013 109.825L79.317 108.376C78.6823 108.261 78.0746 108.682 77.9594 109.316C77.8442 109.951 78.2651 110.559 78.8999 110.674L86.8841 112.123C87.5189 112.239 88.1266 111.817 88.2418 111.183C88.357 110.548 87.9359 109.94 87.3013 109.825Z" fill="white" fill-opacity="0.55"/>
<path d="M115.437 95.1482L110.512 94.2543C109.878 94.1391 109.27 94.5603 109.155 95.1949C109.04 95.8295 109.46 96.4373 110.095 96.5525L115.02 97.4464C115.655 97.5616 116.262 97.1405 116.378 96.5059C116.493 95.8713 116.072 95.2635 115.437 95.1482Z" fill="white" fill-opacity="0.55"/>
<path d="M117.351 91.1432C117.466 90.5086 117.045 89.9007 116.411 89.7855L108.426 88.3363C107.792 88.221 107.184 88.6422 107.069 89.2768C106.954 89.9114 107.375 90.5192 108.009 90.6344L115.994 92.0837C116.628 92.1989 117.236 91.7778 117.351 91.1432Z" fill="white" fill-opacity="0.55"/>
<path d="M125.154 88.0228L119.123 121.246C118.774 123.172 116.922 124.455 114.996 124.106L111.932 123.549C113.858 123.899 115.709 122.616 116.059 120.69L122.09 87.4666C122.439 85.5392 121.156 83.6889 119.23 83.3394L122.295 83.8956C124.221 84.2451 125.504 86.0954 125.154 88.0228Z" fill="#714C97"/>
</g>
</g>
<defs>
<filter id="filter0_d" x="28.5352" y="41.3832" width="124.682" height="124.682" filterUnits="userSpaceOnUse" color-interpolation-filters="sRGB">
<feFlood flood-opacity="0" result="BackgroundImageFix"/>
<feColorMatrix in="SourceAlpha" type="matrix" values="0 0 0 0 0 0 0 0 0 0 0 0 0 0 0 0 0 0 127 0"/>
<feOffset dx="8" dy="6"/>
<feGaussianBlur stdDeviation="8"/>
<feColorMatrix type="matrix" values="0 0 0 0 0.333607 0 0 0 0 0.184844 0 0 0 0 0.4875 0 0 0 1 0"/>
<feBlend mode="normal" in2="BackgroundImageFix" result="effect1_dropShadow"/>
<feBlend mode="normal" in="SourceGraphic" in2="effect1_dropShadow" result="shape"/>
</filter>
<linearGradient id="paint0_linear" x1="29.8101" y1="-0.419395" x2="28.2182" y2="175.877" gradientUnits="userSpaceOnUse">
<stop stop-color="#624184"/>
<stop offset="0.15625" stop-color="#523570"/>
<stop offset="0.758565" stop-color="#573877"/>
<stop offset="0.833789" stop-color="#624184"/>
<stop offset="0.91676" stop-color="#523570"/>
<stop offset="1" stop-color="#624184"/>
</linearGradient>
<linearGradient id="paint1_linear" x1="73.3479" y1="0" x2="73.3479" y2="175.542" gradientUnits="userSpaceOnUse">
<stop stop-color="#5F437C"/>
<stop offset="0.831735" stop-color="#A178CB"/>
<stop offset="1" stop-color="#C5A4E6"/>
</linearGradient>
<linearGradient id="paint2_linear" x1="134.149" y1="5.54426" x2="13.837" y2="170.962" gradientUnits="userSpaceOnUse">
<stop offset="0.670529" stop-color="#603F81"/>
<stop offset="0.925805" stop-color="#5F3F81"/>
<stop offset="1" stop-color="#3D2358"/>
</linearGradient>
<linearGradient id="paint3_linear" x1="16.7116" y1="-27.9985" x2="72.7636" y2="52.9697" gradientUnits="userSpaceOnUse">
<stop stop-color="white" stop-opacity="0.4"/>
<stop offset="1" stop-color="white" stop-opacity="0"/>
</linearGradient>
<clipPath id="clip0">
<rect width="79.7255" height="79.7255" fill="white" transform="translate(50.7734 51.3832) rotate(10.2879)"/>
</clipPath>
</defs>
</svg>
