<svg width="15" height="16" viewBox="0 0 15 16" fill="none" xmlns="http://www.w3.org/2000/svg">
<path d="M14.9707 4.4374C14.9356 3.64039 14.8067 3.09245 14.6221 2.61766C14.4316 2.11367 14.1386 1.66246 13.7547 1.28736C13.3796 0.906424 12.9254 0.610421 12.4272 0.42293C11.9497 0.2383 11.4046 0.109414 10.6076 0.0742738C9.80465 0.0361574 9.54974 0.0273438 7.51321 0.0273438C5.47667 0.0273438 5.22176 0.0361574 4.42177 0.0712978C3.62476 0.106438 3.07683 0.235439 2.60214 0.419954C2.09805 0.610421 1.64683 0.903448 1.27173 1.28736C0.890799 1.66246 0.594911 2.11665 0.407305 2.61479C0.222675 3.09245 0.0937892 3.63741 0.0586488 4.43442C0.0205324 5.23738 0.0117188 5.49229 0.0117188 7.52883C0.0117188 9.56537 0.0205324 9.82028 0.0556728 10.6203C0.0908131 11.4173 0.219814 11.9652 0.404443 12.44C0.594911 12.944 0.890799 13.3952 1.27173 13.7703C1.64683 14.1512 2.10102 14.4472 2.59917 14.6347C3.07683 14.8194 3.62179 14.9482 4.41891 14.9834C5.21878 15.0186 5.47381 15.0273 7.51035 15.0273C9.54688 15.0273 9.80179 15.0186 10.6018 14.9834C11.3988 14.9482 11.9467 14.8194 12.4214 14.6347C13.4295 14.245 14.2265 13.448 14.6162 12.44C14.8008 11.9624 14.9298 11.4173 14.9649 10.6203C15 9.82028 15.0089 9.56537 15.0089 7.52883C15.0089 5.49229 15.0059 5.23738 14.9707 4.4374ZM13.62 10.5617C13.5877 11.2942 13.4646 11.6898 13.3621 11.9535C13.11 12.607 12.5914 13.1256 11.9379 13.3777C11.6742 13.4803 11.2757 13.6033 10.546 13.6355C9.75486 13.6707 9.51758 13.6794 7.51618 13.6794C5.51479 13.6794 5.27453 13.6707 4.48622 13.6355C3.75365 13.6033 3.35806 13.4803 3.09434 13.3777C2.76915 13.2575 2.47314 13.067 2.23289 12.818C1.98381 12.5747 1.79335 12.2817 1.67316 11.9565C1.5706 11.6928 1.44755 11.2942 1.41539 10.5646C1.38013 9.77346 1.37143 9.53607 1.37143 7.53467C1.37143 5.53327 1.38013 5.29301 1.41539 4.50482C1.44755 3.77225 1.5706 3.37666 1.67316 3.11294C1.79335 2.78763 1.98381 2.49175 2.23586 2.25137C2.47898 2.0023 2.77201 1.81183 3.09731 1.69176C3.36104 1.5892 3.7596 1.46615 4.48919 1.43387C5.28036 1.39873 5.51776 1.38992 7.51905 1.38992C9.52342 1.38992 9.7607 1.39873 10.549 1.43387C11.2816 1.46615 11.6772 1.5892 11.9409 1.69176C12.2661 1.81183 12.5621 2.0023 12.8023 2.25137C13.0514 2.49461 13.2419 2.78763 13.3621 3.11294C13.4646 3.37666 13.5877 3.77511 13.62 4.50482C13.6551 5.29599 13.6639 5.53327 13.6639 7.53467C13.6639 9.53607 13.6551 9.77049 13.62 10.5617Z" fill="#7E7E7E"/>
<path d="M7.51346 3.67578C5.38615 3.67578 3.66016 5.40166 3.66016 7.52908C3.66016 9.65651 5.38615 11.3824 7.51346 11.3824C9.64088 11.3824 11.3668 9.65651 11.3668 7.52908C11.3668 5.40166 9.64088 3.67578 7.51346 3.67578ZM7.51346 10.0286C6.13337 10.0286 5.01392 8.90929 5.01392 7.52908C5.01392 6.14888 6.13337 5.02954 7.51346 5.02954C8.89366 5.02954 10.013 6.14888 10.013 7.52908C10.013 8.90929 8.89366 10.0286 7.51346 10.0286Z" fill="#7E7E7E"/>
<path d="M12.4203 3.52359C12.4203 4.02037 12.0175 4.42316 11.5207 4.42316C11.0239 4.42316 10.6211 4.02037 10.6211 3.52359C10.6211 3.02671 11.0239 2.62402 11.5207 2.62402C12.0175 2.62402 12.4203 3.02671 12.4203 3.52359Z" fill="#7E7E7E"/>
</svg>
