<svg width="50" height="53" viewBox="0 0 50 53" fill="none" xmlns="http://www.w3.org/2000/svg">
<path d="M14.9996 9.44924C17.091 8.20835 19.4064 7.39154 21.8135 7.04548C24.2206 6.6994 26.6724 6.83084 29.0287 7.43228C31.385 8.03372 33.5998 9.09339 35.5466 10.5508C37.4934 12.0082 39.1341 13.8347 40.375 15.9262C42.8811 20.1501 43.6066 25.1965 42.392 29.9553C41.1773 34.7141 38.122 38.7954 33.8981 41.3015L14.9996 9.44924Z" fill="#FFCC00" fill-opacity="0.4"/>
<g clip-path="url(#clip0)">
<path d="M19 26L20.9985 28.0244L23.7553 29.1094L22.2336 31.4456L21.9389 34.1406L19 33.56L16.0611 34.1406L15.7664 31.4456L14.2447 29.1094L17.0015 28.0244L19 26Z" fill="#FFCC00"/>
<path d="M19.0016 19.2568C12.9784 19.2568 8.07812 24.1384 8.07812 30.1386C8.07812 36.1388 12.9784 41.0204 19.0016 41.0204C25.0249 41.0204 29.9252 36.1389 29.9252 30.1386C29.9252 24.1383 25.0249 19.2568 19.0016 19.2568ZM19.0016 39.536C13.7969 39.536 9.5625 35.3204 9.5625 30.1386C9.5625 24.9568 13.7969 20.7412 19.0016 20.7412C24.2064 20.7412 28.4408 24.9568 28.4408 30.1386C28.4408 35.3204 24.2064 39.536 19.0016 39.536Z" fill="#2E2E2E"/>
<path d="M19.0026 15C10.6224 15 3.80469 21.7912 3.80469 30.1387C3.80469 33.1846 4.59163 36.2824 6.14354 39.3463C7.37335 41.7742 9.08431 44.1862 11.2288 46.5153C14.8656 50.4651 18.4509 52.7855 18.6018 52.8824C18.7238 52.9609 18.8633 53.0001 19.0027 53.0001C19.1421 53.0001 19.2815 52.9609 19.4036 52.8824C19.5545 52.7856 23.1398 50.4651 26.7766 46.5153C28.921 44.1862 30.6319 41.7742 31.8618 39.3463C33.4137 36.2825 34.2007 33.1846 34.2007 30.1387C34.2005 21.7912 27.3828 15 19.0026 15ZM25.7086 45.4835C22.8883 48.5524 20.0327 50.6465 19.0026 51.3618C17.9723 50.6465 15.1169 48.5524 12.2966 45.4835C9.09975 42.0051 5.28906 36.5193 5.28906 30.1387C5.28906 22.6096 11.4409 16.4844 19.0026 16.4844C26.5643 16.4844 32.7162 22.6096 32.7162 30.1387C32.7162 36.5193 28.9055 42.005 25.7086 45.4835Z" fill="#2E2E2E"/>
<path d="M24.1212 28.0578L21.2872 27.2223L19.6168 24.785C19.4784 24.5831 19.2493 24.4624 19.0046 24.4624C18.7598 24.4624 18.5308 24.5831 18.3923 24.785L16.722 27.2223L13.8879 28.0578C13.653 28.127 13.4675 28.3075 13.3918 28.5403C13.3162 28.7731 13.3602 29.0282 13.5094 29.2223L15.3112 31.564L15.23 34.5176C15.2232 34.7623 15.3376 34.9946 15.5356 35.1385C15.7337 35.2823 15.99 35.3193 16.2206 35.2373L19.0046 34.2473L21.7885 35.2373C21.8695 35.2661 21.9536 35.2802 22.0371 35.2802C22.1918 35.2802 22.3449 35.2319 22.4735 35.1385C22.6715 34.9946 22.7859 34.7623 22.7791 34.5176L22.6978 31.564L24.4996 29.2223C24.6489 29.0283 24.6929 28.7731 24.6173 28.5403C24.5416 28.3075 24.356 28.127 24.1212 28.0578ZM21.3604 30.868C21.2564 31.0033 21.202 31.1704 21.2068 31.341L21.2655 33.4759L19.2533 32.7604C19.1728 32.7318 19.0887 32.7175 19.0046 32.7175C18.9204 32.7175 18.8363 32.7318 18.7559 32.7604L16.7437 33.4759L16.8024 31.341C16.8071 31.1704 16.7528 31.0033 16.6487 30.868L15.3463 29.1754L17.3948 28.5714C17.5586 28.5232 17.7006 28.42 17.7972 28.2792L19.0046 26.5175L20.212 28.2792C20.3085 28.42 20.4506 28.5232 20.6144 28.5714L22.6628 29.1754L21.3604 30.868Z" fill="#2E2E2E"/>
</g>
<defs>
<clipPath id="clip0">
<rect width="38" height="38" fill="white" transform="translate(0 15)"/>
</clipPath>
</defs>
</svg>
