<svg width="51" height="55" viewBox="0 0 51 55" fill="none" xmlns="http://www.w3.org/2000/svg">
<path d="M15.1414 55C13.153 55 11.1841 54.6083 9.34702 53.8474C7.50997 53.0865 5.84079 51.9712 4.43478 50.5651C3.02877 49.1591 1.91346 47.4899 1.15254 45.6529C0.391621 43.8158 -1.59246e-05 41.8469 4.85656e-10 39.8585C4.85656e-10 35.8427 1.59526 31.9914 4.43482 29.1519C7.27439 26.3123 11.1257 24.717 15.1414 24.717V55Z" fill="#7F5CA3"/>
<path d="M32.704 39.8585C30.7156 39.8585 28.7467 40.2501 26.9096 41.011C25.0726 41.772 23.4034 42.8873 21.9974 44.2933C20.5913 45.6993 19.476 47.3685 18.7151 49.2056C17.9541 51.0426 17.5625 53.0116 17.5625 55H32.704V39.8585Z" fill="#7F5CA3"/>
<path d="M17.5625 0C21.5783 -1.28786e-10 25.4296 1.59525 28.2691 4.43481C31.1087 7.27437 32.704 11.1257 32.704 15.1414C32.7041 17.1299 32.3125 19.0988 31.5516 20.9359C30.7906 22.773 29.6753 24.4422 28.2693 25.8483C26.8633 27.2543 25.1941 28.3697 23.357 29.1306C21.5199 29.8916 19.5509 30.2832 17.5625 30.2832V0Z" fill="#7F5CA3"/>
<path d="M50.2706 43.6469C50.2705 39.6311 48.6751 35.7799 45.8355 32.9404C42.9959 30.1009 39.1446 28.5057 35.1289 28.5058V43.6469H50.2706Z" fill="#7F5CA3"/>
</svg>
