<svg width="96" height="96" viewBox="0 0 96 96" fill="none" xmlns="http://www.w3.org/2000/svg">
<g filter="url(#filter0_d)">
<g filter="url(#filter1_b)">
<rect x="20" y="10" width="56" height="56" rx="12" fill="white"/>
</g>
</g>
<g filter="url(#filter2_b)">
<rect x="25.832" y="15.8335" width="44.3333" height="44.3333" rx="12" fill="#227D8D" fill-opacity="0.05"/>
</g>
<path d="M58.5586 29.6133H38.4414C37.0952 29.6133 36 30.7085 36 32.0547V44.9453C36 46.2915 37.0952 47.3867 38.4414 47.3867H46.0098C46.2794 47.3867 46.498 47.1681 46.498 46.8984C46.498 46.6288 46.2794 46.4102 46.0098 46.4102H38.4414C37.6337 46.4102 36.9766 45.753 36.9766 44.9453V38.9883H47.5888C47.6671 39.3846 47.903 39.7338 48.2528 39.9556C48.3667 40.0278 48.4879 40.0827 48.6128 40.1214L47.7532 41.5998C47.6537 41.7708 47.6673 41.9849 47.7875 42.142C47.9077 42.2991 48.1108 42.3681 48.3019 42.3168L49.4711 42.003L49.7839 43.1725C49.835 43.3633 49.9959 43.5046 50.1918 43.5304C50.2132 43.5333 50.2346 43.5346 50.2558 43.5346C50.4286 43.5346 50.5906 43.4428 50.6785 43.2905L52.9047 39.4346L55.6937 44.3933C55.7809 44.5483 55.9444 44.6422 56.1191 44.6422C56.1395 44.6422 56.1599 44.641 56.1804 44.6384C56.3773 44.6135 56.5396 44.4719 56.591 44.2801L56.9039 43.1106L58.0731 43.4244C58.2632 43.4754 58.4654 43.4073 58.5859 43.2516C58.7063 43.0958 58.7215 42.8831 58.6244 42.7118L57.1885 40.1815C57.2338 40.1857 57.2793 40.1883 57.3248 40.1883C57.6023 40.1883 57.8784 40.1101 58.1222 39.9556C58.472 39.7338 58.708 39.3845 58.7862 38.9882H60.0234V44.9453C60.0234 45.753 59.3663 46.4101 58.5586 46.4101H53.6758V43.7734C53.6758 43.5037 53.4572 43.2851 53.1875 43.2851C52.9178 43.2851 52.6992 43.5037 52.6992 43.7734V46.4101H50.1619C49.8922 46.4101 49.6736 46.6287 49.6736 46.8984C49.6736 47.1681 49.8922 47.3867 50.1619 47.3867H58.5586C59.9048 47.3867 61 46.2915 61 44.9453V32.0547C61 30.7085 59.9048 29.6133 58.5586 29.6133ZM48.7757 39.1308C48.6238 39.0345 48.5367 38.8761 48.5367 38.6962V35.2752H48.5367C48.5367 35.0953 48.6238 34.937 48.7757 34.8407C48.9276 34.7443 49.108 34.7332 49.2707 34.8099L51.6664 35.9402C51.6072 36.1006 51.5749 36.2739 51.5749 36.4545V37.499C51.5749 37.6854 51.6096 37.8638 51.6724 38.0284L49.2707 39.1615C49.1081 39.2382 48.9277 39.2271 48.7757 39.1308ZM50.4226 41.7807L50.2882 41.2786C50.2547 41.1534 50.1729 41.0466 50.0607 40.9819C49.9485 40.917 49.8151 40.8996 49.69 40.9332L49.1929 41.0666L49.8248 39.9799L52.0753 38.9181L50.4226 41.7807ZM49.6874 33.9267C49.2229 33.7075 48.6866 33.7409 48.2529 34.0158C47.8191 34.2908 47.5602 34.7616 47.5602 35.2751V38.0117H36.9766V32.0547C36.9766 31.247 37.6337 30.5898 38.4414 30.5898H52.6992V34.7728C52.6992 34.8536 52.7191 34.9295 52.7539 34.9966C52.5973 35.0301 52.45 35.0883 52.3157 35.1667L49.6874 33.9267ZM53.3166 38.0135H53.0659C52.7822 38.0135 52.5514 37.7827 52.5514 37.499V36.4545C52.5514 36.1708 52.7822 35.94 53.0659 35.94H53.3166C53.6003 35.94 53.8311 36.1708 53.8311 36.4545V37.499C53.8311 37.7827 53.6003 38.0135 53.3166 38.0135ZM57.199 42.1787L56.685 42.0407C56.5599 42.0071 56.4265 42.0247 56.3143 42.0895C56.2021 42.1542 56.1202 42.261 56.0868 42.3861L55.9573 42.8699L53.7404 38.9283C53.8479 38.8964 53.9503 38.8526 54.0463 38.7985L55.7322 39.594L57.199 42.1787ZM57.5993 39.1308C57.4474 39.2271 57.267 39.2383 57.1043 39.1616L54.709 38.0314C54.7725 37.866 54.8077 37.6866 54.8077 37.499V36.4545C54.8077 36.2727 54.7749 36.0984 54.715 35.9372L57.1043 34.8099C57.267 34.7332 57.4474 34.7444 57.5993 34.8407C57.7512 34.937 57.8383 35.0954 57.8383 35.2752V38.6963C57.8383 38.8761 57.7512 39.0345 57.5993 39.1308ZM60.0235 38.0117H58.8149V35.2752C58.8149 34.7616 58.5559 34.2908 58.1222 34.0159C57.6884 33.7409 57.1521 33.7076 56.6876 33.9267L54.0635 35.1648C53.9282 35.0862 53.7797 35.028 53.622 34.995C53.6562 34.9283 53.6758 34.8529 53.6758 34.7728V30.5898H58.5586C59.3664 30.5898 60.0235 31.247 60.0235 32.0547V38.0117Z" fill="#227D8D"/>
<path d="M48.3921 46.5532C48.3013 46.4624 48.1753 46.4102 48.0469 46.4102C47.9185 46.4102 47.7925 46.4624 47.7017 46.5532C47.6108 46.644 47.5586 46.77 47.5586 46.8984C47.5586 47.0269 47.6108 47.1528 47.7017 47.2437C47.7925 47.3345 47.9185 47.3867 48.0469 47.3867C48.1753 47.3867 48.3013 47.3345 48.3921 47.2437C48.4834 47.1528 48.5352 47.0269 48.5352 46.8984C48.5352 46.77 48.4834 46.644 48.3921 46.5532Z" fill="#227D8D"/>
<path d="M46.3271 32.25H39.125C38.8553 32.25 38.6367 32.4686 38.6367 32.7383C38.6367 33.008 38.8553 33.2266 39.125 33.2266H46.3271C46.5968 33.2266 46.8154 33.008 46.8154 32.7383C46.8154 32.4686 46.5968 32.25 46.3271 32.25Z" fill="#227D8D"/>
<path d="M46.3271 43.2852H39.125C38.8553 43.2852 38.6367 43.5038 38.6367 43.7734C38.6367 44.0431 38.8553 44.2617 39.125 44.2617H46.3271C46.5968 44.2617 46.8154 44.0431 46.8154 43.7734C46.8154 43.5038 46.5968 43.2852 46.3271 43.2852Z" fill="#227D8D"/>
<path d="M42.1523 34.8867H39.125C38.8553 34.8867 38.6367 35.1053 38.6367 35.375C38.6367 35.6447 38.8553 35.8633 39.125 35.8633H42.1523C42.422 35.8633 42.6406 35.6447 42.6406 35.375C42.6406 35.1053 42.422 34.8867 42.1523 34.8867Z" fill="#227D8D"/>
<path d="M44.3882 35.0298C44.2974 34.939 44.1714 34.8867 44.043 34.8867C43.9141 34.8867 43.7886 34.939 43.6978 35.0298C43.6069 35.1206 43.5547 35.2466 43.5547 35.375C43.5547 35.5034 43.6069 35.6294 43.6978 35.7202C43.7886 35.811 43.9141 35.8633 44.043 35.8633C44.1714 35.8633 44.2974 35.811 44.3882 35.7202C44.479 35.6294 44.5312 35.5034 44.5312 35.375C44.5312 35.2466 44.479 35.1206 44.3882 35.0298Z" fill="#227D8D"/>
<defs>
<filter id="filter0_d" x="0" y="0" width="96" height="96" filterUnits="userSpaceOnUse" color-interpolation-filters="sRGB">
<feFlood flood-opacity="0" result="BackgroundImageFix"/>
<feColorMatrix in="SourceAlpha" type="matrix" values="0 0 0 0 0 0 0 0 0 0 0 0 0 0 0 0 0 0 127 0"/>
<feOffset dy="10"/>
<feGaussianBlur stdDeviation="10"/>
<feColorMatrix type="matrix" values="0 0 0 0 0.116252 0 0 0 0 0.0365799 0 0 0 0 0.204167 0 0 0 0.12 0"/>
<feBlend mode="normal" in2="BackgroundImageFix" result="effect1_dropShadow"/>
<feBlend mode="normal" in="SourceGraphic" in2="effect1_dropShadow" result="shape"/>
</filter>
<filter id="filter1_b" x="0" y="-10" width="96" height="96" filterUnits="userSpaceOnUse" color-interpolation-filters="sRGB">
<feFlood flood-opacity="0" result="BackgroundImageFix"/>
<feGaussianBlur in="BackgroundImage" stdDeviation="10"/>
<feComposite in2="SourceAlpha" operator="in" result="effect1_backgroundBlur"/>
<feBlend mode="normal" in="SourceGraphic" in2="effect1_backgroundBlur" result="shape"/>
</filter>
<filter id="filter2_b" x="5.83203" y="-4.1665" width="84.3333" height="84.3333" filterUnits="userSpaceOnUse" color-interpolation-filters="sRGB">
<feFlood flood-opacity="0" result="BackgroundImageFix"/>
<feGaussianBlur in="BackgroundImage" stdDeviation="10"/>
<feComposite in2="SourceAlpha" operator="in" result="effect1_backgroundBlur"/>
<feBlend mode="normal" in="SourceGraphic" in2="effect1_backgroundBlur" result="shape"/>
</filter>
</defs>
</svg>
