<svg width="59" height="55" viewBox="0 0 59 55" fill="none" xmlns="http://www.w3.org/2000/svg">
<path d="M28.0018 10.9802C30.4475 9.9322 33.0276 9.32485 35.5948 9.19278C38.162 9.06072 40.6661 9.40652 42.964 10.2105C45.2619 11.0144 47.3087 12.2607 48.9875 13.8782C50.6663 15.4958 51.9442 17.4529 52.7482 19.6378C54.3721 24.0503 53.9674 29.1229 51.6231 33.7396C49.2788 38.3562 45.1869 42.1389 40.2477 44.2553L28.0018 10.9802Z" fill="#265AA6" fill-opacity="0.4"/>
<ellipse cx="35" cy="34" rx="10" ry="3" fill="#265AA6" fill-opacity="0.85"/>
<path d="M45.9908 33.7551C45.9358 32.4812 44.6894 31.4638 42.2789 30.7306C40.4092 30.1715 38.0355 29.8324 35.4692 29.7774V19.9982C35.4601 19.8332 35.4142 19.6774 35.3317 19.5399C35.0751 18.4309 33.8378 17.5328 31.6473 16.8729C29.5852 16.2496 26.8906 15.9105 24.0586 15.9105C21.2357 15.9105 18.5686 16.2496 16.5431 16.8729C14.8842 17.3861 12.8954 18.3393 12.8954 19.9799C12.8954 20.0807 12.9046 20.1815 12.9229 20.2823L13.0237 24.4616C7.06635 23.3251 1.31978 27.2387 0.192469 33.1869C0.0641562 33.8651 0 34.5433 0 35.2307C0 41.2797 4.9217 46.2014 10.9707 46.2014C13.4911 46.2014 15.9291 45.3399 17.8813 43.7452C19.5951 44.1484 21.6115 44.3684 23.747 44.3867C24.2144 46.9255 29.7135 48.0895 34.8368 48.0895C37.6597 48.0895 40.3268 47.7412 42.3523 47.1088C44.0112 46.5955 46 45.6332 46 43.9926V33.9293C46 33.8743 46 33.8101 45.9908 33.7551ZM33.5537 25.0665C33.5537 25.1857 33.1138 25.8181 31.1249 26.423C29.2644 26.9821 26.689 27.312 24.0677 27.312C21.8039 27.312 19.586 27.0737 17.8263 26.6246C17.7988 26.6154 17.7804 26.6154 17.7529 26.6063C16.8822 25.9189 15.9199 25.369 14.8842 24.984L14.8201 22.3995C15.4525 22.7202 16.1124 22.9769 16.7998 23.1602C18.7886 23.7376 21.364 24.0492 24.0677 24.0492C26.8906 24.0492 29.5943 23.7101 31.6565 23.0869C32.3439 22.8852 33.013 22.6194 33.6453 22.2895V24.6908C33.5445 24.8191 33.5537 24.9382 33.5537 25.0665ZM17.093 18.6417C18.9444 18.0735 21.419 17.7527 24.0586 17.7527C26.6798 17.7527 29.2552 18.0735 31.1158 18.6417C33.1046 19.2466 33.5445 19.8699 33.5445 19.989C33.5445 20.1173 33.0954 20.7497 31.1066 21.3455C29.2461 21.9045 26.6798 22.2253 24.0586 22.2253C21.529 22.2253 19.1277 21.932 17.3038 21.4005C15.3333 20.8322 14.7834 20.209 14.7376 20.0074C14.7376 19.989 14.7284 19.989 14.7284 19.989C14.7376 19.8149 15.1592 19.2283 17.093 18.6417ZM17.1205 41.9946C13.3903 45.3857 7.60709 45.1199 4.21598 41.3897C0.824866 37.6595 1.09066 31.8763 4.82088 28.4851C6.49811 26.9546 8.69775 26.1114 10.9707 26.1114C11.8872 26.1114 12.7946 26.2488 13.6744 26.5146C16.8548 27.5045 19.2469 30.144 19.9251 33.3977C20.0442 34.0026 20.1084 34.6258 20.1084 35.2399C20.1176 37.8153 19.0269 40.2624 17.1205 41.9946ZM19.4485 42.1962C20.1909 41.2889 20.7866 40.2716 21.2082 39.1809C21.9872 39.2451 22.7938 39.2909 23.637 39.3V39.465L23.692 42.572C22.2714 42.5537 20.8508 42.4254 19.4485 42.1962ZM21.8956 34.1492C22.4272 34.1859 22.9863 34.2042 23.5545 34.2134L23.6095 37.4578C22.9679 37.4487 22.3355 37.4212 21.7306 37.3754C21.8681 36.6696 21.9414 35.9456 21.9414 35.2307C21.9414 34.8733 21.9231 34.5158 21.8956 34.1492ZM24.1502 32.3895C24.1227 32.3895 24.0861 32.3895 24.0586 32.3895C23.1787 32.3895 22.3264 32.3528 21.5382 32.2979C21.1899 31.0697 20.64 29.9149 19.8976 28.8884C21.2724 29.0625 22.6563 29.1542 24.0494 29.1542C26.8815 29.1542 29.5852 28.8151 31.6473 28.1919C32.3347 27.9902 32.9946 27.7244 33.627 27.4037V29.8049C29.6952 29.9149 25.6533 30.7398 24.1502 32.3895ZM25.36 33.8468C25.36 33.8376 25.36 33.8284 25.3692 33.8101C25.4517 33.5627 26.1024 32.9577 27.9996 32.4262C29.7776 31.9221 32.0964 31.6471 34.5344 31.6471H34.6902C37.3114 31.6471 39.8777 31.9496 41.7474 32.5178C43.6995 33.1044 44.1578 33.7093 44.167 33.8468V33.8559C44.1578 33.9934 43.6995 34.6258 41.6649 35.2307C39.786 35.7898 37.3114 36.0922 34.6993 36.0922C32.1698 36.0922 29.7685 35.799 27.9446 35.2765C25.9741 34.7083 25.4334 34.0759 25.3784 33.8834C25.36 33.8468 25.36 33.8468 25.36 33.8468ZM41.8207 45.3674C39.9693 45.9448 37.4856 46.2656 34.846 46.2656C32.1973 46.2656 29.7227 45.954 27.8896 45.3949C25.9558 44.7992 25.5525 44.1851 25.5525 44.0476C25.5525 44.0384 25.5525 44.0384 25.5525 44.0293L25.5067 41.3714C26.2399 41.7288 27.0006 42.0038 27.7888 42.2054C29.7135 42.7095 32.1606 42.9936 34.6718 42.9936C37.5039 42.9936 40.1893 42.6545 42.2423 42.0313C42.9113 41.8296 43.5529 41.5638 44.167 41.2522V44.0018H44.1761C44.1761 44.1301 43.7545 44.7625 41.8207 45.3674ZM44.1853 38.6218H44.1761C44.1761 38.7135 44.1211 38.8235 44.1211 38.9243C44.1211 39.0526 43.6904 39.6758 41.7107 40.2807C39.8318 40.849 37.3297 41.1606 34.681 41.1606C29.6035 41.1606 26.1849 40.0149 25.47 39.1259L25.4608 38.356L25.4242 36.248C26.0658 36.5688 26.7348 36.8255 27.4222 37.0179C29.411 37.5953 31.9865 37.9069 34.6902 37.9069C37.4764 37.9069 40.1343 37.577 42.1781 36.9721C42.8747 36.7796 43.5437 36.5138 44.1853 36.1839V38.6218Z" fill="#2E2E2E"/>
<path d="M14.307 36.5321C13.8854 35.0382 12.5198 34.0117 10.9709 34.0117C10.0727 34.0117 9.3395 33.2876 9.3395 32.3894C9.34866 31.4821 10.0727 30.758 10.9709 30.758C11.8691 30.758 12.6023 31.4913 12.6023 32.3894C12.6023 32.8935 13.0147 33.306 13.5188 33.306C14.0229 33.306 14.4353 32.8935 14.4353 32.3894C14.4353 30.8405 13.4088 29.4749 11.9149 29.0533V28.6409C11.9149 28.1368 11.5025 27.7244 10.9984 27.7244C10.4943 27.7244 10.0819 28.1368 10.0819 28.6409V29.035C8.23967 29.5299 7.13985 31.4271 7.63477 33.2693C8.03804 34.7816 9.40365 35.8356 10.9709 35.8356C11.8691 35.8356 12.6023 36.5596 12.6023 37.4578C12.6023 38.356 11.8783 39.0892 10.9801 39.0892C10.0819 39.0892 9.34866 38.3651 9.34866 37.467C9.34866 36.9629 8.93623 36.5504 8.43214 36.5504C7.92806 36.5504 7.51562 36.9629 7.51562 37.467C7.52479 39.0342 8.56962 40.3998 10.0819 40.8123V41.6096C10.0819 42.1137 10.4943 42.5261 10.9984 42.5261C11.5025 42.5261 11.9149 42.1137 11.9149 41.6096V40.8031C13.7571 40.2807 14.8294 38.3743 14.307 36.5321Z" fill="#2E2E2E"/>
</svg>
