<svg width="96" height="96" viewBox="0 0 96 96" fill="none" xmlns="http://www.w3.org/2000/svg">
<g filter="url(#filter0_d)">
<g filter="url(#filter1_b)">
<rect x="20" y="10" width="56" height="56" rx="12" fill="white"/>
</g>
</g>
<g filter="url(#filter2_b)">
<rect x="25.832" y="15.8335" width="44.3333" height="44.3333" rx="12" fill="#FFCC00" fill-opacity="0.05"/>
</g>
<path d="M57.7556 46.5775L52.0682 40.89C53.1698 39.5292 53.8331 37.8 53.8331 35.9167C53.8331 31.5517 50.2815 28 45.9166 28C41.5516 28 38 31.5516 38 35.9166C38 40.2816 41.5516 43.8333 45.9166 43.8333C47.7999 43.8333 49.5291 43.17 50.8899 42.0683L56.5773 47.7558C56.7398 47.9183 56.9531 48 57.1665 48C57.3798 48 57.5931 47.9183 57.7556 47.7558C58.0815 47.43 58.0815 46.9033 57.7556 46.5775ZM45.9166 42.1666C42.47 42.1666 39.6667 39.3633 39.6667 35.9166C39.6667 32.47 42.47 29.6666 45.9166 29.6666C49.3632 29.6666 52.1665 32.47 52.1665 35.9166C52.1665 39.3633 49.3632 42.1666 45.9166 42.1666Z" fill="#FFCC00"/>
<defs>
<filter id="filter0_d" x="0" y="0" width="96" height="96" filterUnits="userSpaceOnUse" color-interpolation-filters="sRGB">
<feFlood flood-opacity="0" result="BackgroundImageFix"/>
<feColorMatrix in="SourceAlpha" type="matrix" values="0 0 0 0 0 0 0 0 0 0 0 0 0 0 0 0 0 0 127 0"/>
<feOffset dy="10"/>
<feGaussianBlur stdDeviation="10"/>
<feColorMatrix type="matrix" values="0 0 0 0 0.116252 0 0 0 0 0.0365799 0 0 0 0 0.204167 0 0 0 0.12 0"/>
<feBlend mode="normal" in2="BackgroundImageFix" result="effect1_dropShadow"/>
<feBlend mode="normal" in="SourceGraphic" in2="effect1_dropShadow" result="shape"/>
</filter>
<filter id="filter1_b" x="0" y="-10" width="96" height="96" filterUnits="userSpaceOnUse" color-interpolation-filters="sRGB">
<feFlood flood-opacity="0" result="BackgroundImageFix"/>
<feGaussianBlur in="BackgroundImage" stdDeviation="10"/>
<feComposite in2="SourceAlpha" operator="in" result="effect1_backgroundBlur"/>
<feBlend mode="normal" in="SourceGraphic" in2="effect1_backgroundBlur" result="shape"/>
</filter>
<filter id="filter2_b" x="5.83203" y="-4.1665" width="84.3333" height="84.3333" filterUnits="userSpaceOnUse" color-interpolation-filters="sRGB">
<feFlood flood-opacity="0" result="BackgroundImageFix"/>
<feGaussianBlur in="BackgroundImage" stdDeviation="10"/>
<feComposite in2="SourceAlpha" operator="in" result="effect1_backgroundBlur"/>
<feBlend mode="normal" in="SourceGraphic" in2="effect1_backgroundBlur" result="shape"/>
</filter>
</defs>
</svg>
