<svg width="50" height="54" viewBox="0 0 50 54" fill="none" xmlns="http://www.w3.org/2000/svg">
<path d="M13.1581 39.3475C11.4301 37.6365 10.056 35.6018 9.11425 33.3596C8.17254 31.1175 7.68167 28.7118 7.66967 26.28C7.65767 23.8481 8.12478 21.4378 9.04433 19.1864C9.96388 16.9351 11.3179 14.887 13.029 13.1589C16.4846 9.66895 21.1852 7.69469 26.0965 7.67044C31.0078 7.6462 35.7276 9.57395 39.2175 13.0296L13.1581 39.3475Z" fill="#7F5CA3" fill-opacity="0.4"/>
<g clip-path="url(#clip0)">
<circle cx="30.5" cy="28.5" r="2.5" fill="#7F5CA3"/>
<circle cx="38.5" cy="19.5" r="2.5" fill="#7F5CA3" fill-opacity="0.55"/>
<circle cx="22" cy="38" r="2" fill="#7F5CA3" fill-opacity="0.55"/>
<path d="M24.2554 39.9312C25.3556 38.831 25.3556 37.0404 24.2554 35.9402C23.7222 35.4073 23.0137 35.1136 22.2599 35.1136C21.8241 35.1136 21.4037 35.2122 21.0237 35.3981C19.6834 33.4805 18.9774 31.2366 18.9774 28.8764C18.9774 22.8359 23.6961 17.832 29.7197 17.4841C30.1294 17.4603 30.4419 17.1092 30.4184 16.6999C30.3947 16.2902 30.0436 15.9785 29.6342 16.0012C22.8255 16.3946 17.4922 22.05 17.4922 28.8764C17.4922 31.5998 18.3245 34.1868 19.9026 36.3841C19.1815 37.4788 19.3021 38.969 20.2644 39.9312C20.7975 40.4641 21.5061 40.7577 22.2599 40.7577C23.0137 40.7577 23.7222 40.4641 24.2554 39.9312ZM21.3145 36.9906C21.5751 36.7299 21.9175 36.5995 22.2599 36.5995C22.602 36.5995 22.9444 36.7299 23.205 36.9906C23.7263 37.5115 23.7263 38.3598 23.205 38.8808C22.6837 39.4021 21.8357 39.4021 21.3145 38.8808C20.7935 38.3598 20.7935 37.5118 21.3145 36.9906Z" fill="#2E2E2E"/>
<path d="M41.84 41.7293C41.3706 41.7293 40.9294 41.8516 40.5464 42.0662C40.2069 40.9897 39.1991 40.2069 38.0119 40.2069C37.2608 40.2069 36.5815 40.5203 36.0979 41.023C35.9637 40.8839 35.8144 40.7595 35.6529 40.6519C37.3646 39.8857 38.9049 38.7475 40.1512 37.3057C42.1731 34.9661 43.2867 31.9724 43.2867 28.8764C43.2867 26.1544 42.4543 23.566 40.8766 21.3684C41.5976 20.2737 41.477 18.7838 40.5145 17.8213C39.4143 16.721 37.624 16.721 36.5235 17.8213C35.4233 18.9215 35.4233 20.712 36.5235 21.8123C37.0738 22.3625 37.7962 22.6377 38.519 22.6377C38.9426 22.6377 39.3656 22.5423 39.7543 22.3533C41.0952 24.2713 41.8014 26.517 41.8014 28.8764C41.8014 34.2485 38.1546 38.7895 33.0123 39.9857V35.9883C35.9573 34.9011 37.9693 32.0545 37.9693 28.8764C37.9693 24.6972 34.5692 21.2971 30.3897 21.2971C26.2106 21.2971 22.8104 24.6969 22.8104 28.8764C22.8104 30.5257 23.3314 32.0942 24.3165 33.4116C25.1759 34.5605 26.3648 35.4529 27.6987 35.962V46.8857L26.7658 45.3553C25.9818 44.0683 24.3452 43.6508 23.0403 44.404C21.7992 45.1207 21.315 46.6932 21.9415 47.9903L24.7117 53.5866C24.8413 53.8484 25.1045 54 25.3779 54C25.4887 54 25.6009 53.9754 25.7067 53.9229C26.0743 53.7408 26.2248 53.2952 26.043 52.9279L23.2757 47.338C22.989 46.744 23.2117 46.0203 23.7831 45.6904C24.3737 45.3495 25.1428 45.5457 25.4977 46.1282L27.8071 49.9177C27.9805 50.2018 28.3217 50.336 28.6421 50.2462C28.9625 50.1563 29.184 49.8641 29.184 49.5309V32.4919C29.184 31.846 29.7096 31.3207 30.3555 31.3207C31.0015 31.3207 31.5271 31.846 31.5271 32.4919V35.4294C31.5268 35.4346 31.5271 35.4398 31.5271 35.4453V46.5961C31.5271 47.0063 31.8593 47.3386 32.2695 47.3386C32.6798 47.3386 33.0123 47.0063 33.0123 46.5961V42.8637C33.0123 42.2178 33.5376 41.6922 34.1836 41.6922C34.8295 41.6922 35.3551 42.2178 35.3551 42.8637V46.8663C35.3551 47.2765 35.6877 47.6091 36.0976 47.6091C36.5078 47.6091 36.8404 47.2765 36.8404 46.8663V42.8637C36.8404 42.2178 37.366 41.6922 38.0119 41.6922C38.6579 41.6922 39.1832 42.2178 39.1832 42.8637V46.9165C39.1832 47.3267 39.5157 47.6592 39.926 47.6592C40.3362 47.6592 40.6684 47.3267 40.6684 46.9165V44.3861C40.6684 43.7401 41.1941 43.2145 41.84 43.2145C42.4859 43.2145 43.0116 43.7401 43.0116 44.3861V53.257C43.0116 53.6672 43.3438 53.9997 43.754 53.9997C44.1643 53.9997 44.4968 53.6672 44.4968 53.257V44.3861C44.4968 42.9211 43.305 41.7293 41.84 41.7293ZM37.5739 20.7622C37.0526 20.2409 37.0526 19.3929 37.5739 18.8716C37.8345 18.611 38.1766 18.4808 38.519 18.4808C38.8614 18.4808 39.2038 18.611 39.4644 18.8716C39.9854 19.3929 39.9854 20.2409 39.4644 20.7622C38.9431 21.2832 38.0949 21.2832 37.5739 20.7622ZM24.2957 28.8764C24.2957 25.516 27.0296 22.782 30.39 22.782C33.7502 22.782 36.4841 25.516 36.4841 28.8764C36.4841 31.2427 35.0974 33.3808 33.0123 34.3784V32.4919C33.0123 32.075 32.9155 31.6802 32.7433 31.3285C33.402 30.6936 33.7913 29.8085 33.7913 28.8764C33.7913 27.0006 32.2655 25.4748 30.39 25.4748C28.5143 25.4748 26.9884 27.0006 26.9884 28.8764C26.9884 29.7812 27.3569 30.6507 27.9904 31.2844C27.8045 31.6468 27.6987 32.0574 27.6987 32.4919V34.3471C25.6307 33.3365 24.2957 31.2407 24.2957 28.8764ZM29.008 30.2036C28.6656 29.8493 28.4737 29.38 28.4737 28.8764C28.4737 27.8196 29.3333 26.96 30.3897 26.96C31.4465 26.96 32.3061 27.8196 32.3061 28.8764C32.3061 29.3872 32.0985 29.8737 31.7454 30.2291C31.3407 29.9795 30.8646 29.8354 30.3555 29.8354C29.8638 29.8354 29.4034 29.97 29.008 30.2036Z" fill="#2E2E2E"/>
<path d="M33.0198 17.75C33.2152 17.75 33.4069 17.6706 33.5449 17.5323C33.6832 17.3943 33.7626 17.2027 33.7626 17.0072C33.7626 16.8121 33.6832 16.6205 33.5449 16.4822C33.4069 16.3442 33.2152 16.2648 33.0198 16.2648C32.8247 16.2648 32.6331 16.3442 32.4951 16.4822C32.3568 16.6205 32.2773 16.8121 32.2773 17.0072C32.2773 17.2027 32.3568 17.3943 32.4951 17.5323C32.6331 17.6706 32.8247 17.75 33.0198 17.75Z" fill="#2E2E2E"/>
</g>
<defs>
<clipPath id="clip0">
<rect width="38" height="38" fill="white" transform="translate(12 16)"/>
</clipPath>
</defs>
</svg>
