<svg width="96" height="96" viewBox="0 0 96 96" fill="none" xmlns="http://www.w3.org/2000/svg">
<g filter="url(#filter0_d)">
<g filter="url(#filter1_b)">
<rect x="20" y="10" width="56" height="56" rx="12" fill="white"/>
</g>
</g>
<g filter="url(#filter2_b)">
<rect x="25.832" y="15.8335" width="44.3333" height="44.3333" rx="12" fill="#FFCC00" fill-opacity="0.05"/>
</g>
<path d="M53.8027 49.0303C53.727 49.0303 53.6535 49.0049 53.594 48.9582C53.5345 48.9114 53.4924 48.846 53.4744 48.7725C53.4565 48.6989 53.4638 48.6215 53.4952 48.5526C53.5265 48.4837 53.5801 48.4273 53.6473 48.3925C53.9112 48.2573 54.1838 48.0992 54.4811 47.9128C54.5573 47.8652 54.6492 47.8498 54.7367 47.87C54.8242 47.8902 54.9001 47.9444 54.9477 48.0205C54.9953 48.0967 55.0106 48.1886 54.9904 48.2761C54.9702 48.3636 54.9161 48.4395 54.8399 48.4871C54.5267 48.683 54.2379 48.8489 53.9575 48.9938C53.9095 49.0181 53.8565 49.0306 53.8027 49.0303Z" fill="#FFCC00"/>
<path d="M48.4998 50.3246C45.9151 50.3215 43.4028 49.4707 41.3482 47.9026C39.2936 46.3345 37.8101 44.1357 37.1253 41.6435C36.4404 39.1512 36.592 36.5031 37.5569 34.1053C38.5217 31.7074 40.2465 29.6923 42.4667 28.369C44.6869 27.0457 47.2799 26.4872 49.848 26.7793C52.4161 27.0713 54.8175 28.1977 56.6839 29.9857C58.5503 31.7737 59.7786 34.1246 60.1805 36.6779C60.5823 39.2311 60.1355 41.8456 58.9086 44.1205C58.866 44.1994 58.7938 44.2581 58.7079 44.2837C58.622 44.3093 58.5295 44.2998 58.4506 44.2572C58.3718 44.2146 58.3131 44.1424 58.2875 44.0565C58.2618 43.9706 58.2714 43.8781 58.314 43.7992C59.4748 41.6515 59.8987 39.1821 59.5207 36.7702C59.1427 34.3582 57.9836 32.137 56.2214 30.4473C54.4592 28.7576 52.1912 27.6929 49.7655 27.4165C47.3399 27.1402 44.8905 27.6674 42.7934 28.9174C40.6962 30.1674 39.0672 32.071 38.1564 34.3361C37.2455 36.6012 37.1031 39.1026 37.751 41.4564C38.3989 43.8103 39.8013 45.8865 41.743 47.3664C43.6847 48.8463 46.0584 49.6482 48.4998 49.6489C49.4795 49.6507 50.4552 49.5217 51.4008 49.2654C51.4873 49.2419 51.5796 49.2536 51.6574 49.2981C51.7352 49.3426 51.7921 49.4161 51.8157 49.5026C51.8392 49.5891 51.8275 49.6814 51.783 49.7592C51.7385 49.837 51.665 49.8939 51.5785 49.9175C50.575 50.1896 49.5396 50.3265 48.4998 50.3246Z" fill="#FFCC00"/>
<path d="M56.5146 47.0674C56.4473 47.0676 56.3815 47.0477 56.3256 47.0102C56.2696 46.9728 56.2262 46.9194 56.2008 46.8571C56.1754 46.7948 56.1692 46.7263 56.1829 46.6604C56.1967 46.5945 56.2299 46.5343 56.2781 46.4873C56.5197 46.2509 56.7467 46.0113 56.9538 45.7701C57.012 45.702 57.0949 45.6598 57.1843 45.6529C57.2736 45.6459 57.3621 45.6747 57.4301 45.733C57.4982 45.7912 57.5404 45.8741 57.5474 45.9634C57.5544 46.0528 57.5256 46.1412 57.4673 46.2093C57.2477 46.4661 57.0065 46.7225 56.7501 46.9718C56.687 47.0331 56.6026 47.0674 56.5146 47.0674Z" fill="#FFCC00"/>
<path d="M48.5007 47.833C46.6549 47.833 44.8505 47.2857 43.3157 46.2602C41.781 45.2347 40.5848 43.7771 39.8784 42.0718C39.172 40.3664 38.9872 38.4899 39.3473 36.6795C39.7074 34.8691 40.5963 33.2062 41.9015 31.901C43.2067 30.5958 44.8696 29.7069 46.68 29.3468C48.4904 28.9867 50.3669 29.1715 52.0722 29.8779C53.7776 30.5843 55.2352 31.7805 56.2607 33.3152C57.2862 34.85 57.8335 36.6544 57.8335 38.5003C57.8307 40.9746 56.8465 43.3467 55.0968 45.0964C53.3472 46.846 50.9751 47.8302 48.5007 47.833ZM48.5007 29.8432C46.7885 29.8432 45.1148 30.3509 43.6911 31.3021C42.2675 32.2534 41.1579 33.6055 40.5026 35.1873C39.8474 36.7692 39.676 38.5099 40.01 40.1892C40.344 41.8685 41.1685 43.411 42.3793 44.6217C43.59 45.8325 45.1325 46.657 46.8118 46.991C48.4911 47.325 50.2318 47.1536 51.8137 46.4984C53.3955 45.8431 54.7476 44.7335 55.6989 43.3099C56.6501 41.8862 57.1578 40.2125 57.1578 38.5003C57.1552 36.205 56.2423 34.0046 54.6194 32.3816C52.9964 30.7587 50.796 29.8458 48.5007 29.8432Z" fill="#FFCC00"/>
<path d="M48.4988 44.4123C48.1852 44.4123 47.8845 44.2877 47.6627 44.066C47.441 43.8442 47.3164 43.5435 47.3164 43.2299V37.4866C47.3164 37.173 47.441 36.8723 47.6627 36.6505C47.8845 36.4288 48.1852 36.3042 48.4988 36.3042C48.8124 36.3042 49.1132 36.4288 49.3349 36.6505C49.5567 36.8723 49.6813 37.173 49.6813 37.4866V43.2299C49.6813 43.5435 49.5567 43.8442 49.3349 44.066C49.1132 44.2877 48.8124 44.4123 48.4988 44.4123ZM48.4988 36.9799C48.3644 36.9799 48.2355 37.0333 48.1405 37.1283C48.0455 37.2233 47.9921 37.3522 47.9921 37.4866V43.2299C47.9921 43.3643 48.0455 43.4932 48.1405 43.5882C48.2355 43.6832 48.3644 43.7366 48.4988 43.7366C48.6332 43.7366 48.7621 43.6832 48.8572 43.5882C48.9522 43.4932 49.0056 43.3643 49.0056 43.2299V37.4866C49.0056 37.3522 48.9522 37.2233 48.8572 37.1283C48.7621 37.0333 48.6332 36.9799 48.4988 36.9799Z" fill="#FFCC00"/>
<path d="M48.4998 35.2906C48.2325 35.2906 47.9712 35.2113 47.749 35.0629C47.5268 34.9144 47.3536 34.7033 47.2513 34.4564C47.149 34.2095 47.1223 33.9377 47.1744 33.6756C47.2265 33.4135 47.3552 33.1727 47.5442 32.9837C47.7332 32.7947 47.974 32.666 48.2361 32.6139C48.4983 32.5617 48.77 32.5885 49.0169 32.6908C49.2638 32.793 49.4749 32.9662 49.6234 33.1885C49.7719 33.4107 49.8511 33.672 49.8511 33.9392C49.8511 34.2976 49.7088 34.6414 49.4553 34.8948C49.2019 35.1482 48.8582 35.2906 48.4998 35.2906ZM48.4998 33.2636C48.3661 33.2636 48.2355 33.3032 48.1244 33.3774C48.0133 33.4517 47.9267 33.5572 47.8755 33.6807C47.8244 33.8041 47.811 33.94 47.8371 34.0711C47.8632 34.2021 47.9275 34.3225 48.022 34.417C48.1165 34.5115 48.2369 34.5759 48.368 34.6019C48.499 34.628 48.6349 34.6146 48.7584 34.5635C48.8818 34.5123 48.9873 34.4257 49.0616 34.3146C49.1358 34.2035 49.1755 34.0729 49.1755 33.9392C49.1755 33.76 49.1043 33.5882 48.9776 33.4615C48.8508 33.3348 48.679 33.2636 48.4998 33.2636Z" fill="#FFCC00"/>
<defs>
<filter id="filter0_d" x="0" y="0" width="96" height="96" filterUnits="userSpaceOnUse" color-interpolation-filters="sRGB">
<feFlood flood-opacity="0" result="BackgroundImageFix"/>
<feColorMatrix in="SourceAlpha" type="matrix" values="0 0 0 0 0 0 0 0 0 0 0 0 0 0 0 0 0 0 127 0"/>
<feOffset dy="10"/>
<feGaussianBlur stdDeviation="10"/>
<feColorMatrix type="matrix" values="0 0 0 0 0.116252 0 0 0 0 0.0365799 0 0 0 0 0.204167 0 0 0 0.12 0"/>
<feBlend mode="normal" in2="BackgroundImageFix" result="effect1_dropShadow"/>
<feBlend mode="normal" in="SourceGraphic" in2="effect1_dropShadow" result="shape"/>
</filter>
<filter id="filter1_b" x="0" y="-10" width="96" height="96" filterUnits="userSpaceOnUse" color-interpolation-filters="sRGB">
<feFlood flood-opacity="0" result="BackgroundImageFix"/>
<feGaussianBlur in="BackgroundImage" stdDeviation="10"/>
<feComposite in2="SourceAlpha" operator="in" result="effect1_backgroundBlur"/>
<feBlend mode="normal" in="SourceGraphic" in2="effect1_backgroundBlur" result="shape"/>
</filter>
<filter id="filter2_b" x="5.83203" y="-4.1665" width="84.3333" height="84.3333" filterUnits="userSpaceOnUse" color-interpolation-filters="sRGB">
<feFlood flood-opacity="0" result="BackgroundImageFix"/>
<feGaussianBlur in="BackgroundImage" stdDeviation="10"/>
<feComposite in2="SourceAlpha" operator="in" result="effect1_backgroundBlur"/>
<feBlend mode="normal" in="SourceGraphic" in2="effect1_backgroundBlur" result="shape"/>
</filter>
</defs>
</svg>
