<svg width="96" height="96" viewBox="0 0 96 96" fill="none" xmlns="http://www.w3.org/2000/svg">
<g filter="url(#filter0_d)">
<g filter="url(#filter1_b)">
<rect x="20" y="10" width="56" height="56" rx="12" fill="white"/>
</g>
</g>
<g filter="url(#filter2_b)">
<rect x="25.832" y="15.8333" width="44.3333" height="44.3333" rx="12" fill="#7F5CA3" fill-opacity="0.05"/>
</g>
<path d="M58.3326 30.7821H59.105C59.3745 30.7821 59.593 30.5636 59.593 30.2941C59.593 30.0247 59.3745 29.8061 59.105 29.8061H57.2508C56.9813 29.8061 56.7628 30.0247 56.7628 30.2941V32.1484C56.7628 32.4178 56.9813 32.6363 57.2508 32.6363C57.5202 32.6363 57.7387 32.4178 57.7387 32.1484V31.6115C59.2193 33.5936 60.0241 35.9986 60.0241 38.5C60.0241 44.8544 54.8544 50.0241 48.5 50.0241C42.1456 50.0241 36.9759 44.8544 36.9759 38.5C36.9759 32.1456 42.1456 26.9759 48.5 26.9759C48.97 26.9759 49.4429 27.0045 49.9059 27.0607C50.1731 27.093 50.4167 26.9028 50.4492 26.6352C50.4818 26.3677 50.2913 26.1244 50.0237 26.0919C49.5218 26.0309 49.0092 26 48.5 26C45.1611 26 42.0221 27.3002 39.6612 29.6612C37.3002 32.0221 36 35.1611 36 38.5C36 41.8389 37.3002 44.9779 39.6612 47.3388C42.0221 49.6998 45.1611 51 48.5 51C51.8389 51 54.9779 49.6998 57.3388 47.3388C59.6998 44.9779 61 41.8389 61 38.5C61 35.6825 60.0587 32.9776 58.3326 30.7821Z" fill="#7F5CA3"/>
<path d="M41.2922 33.3688C41.0645 33.2246 40.7631 33.2924 40.6189 33.52C39.5049 35.2794 39.0118 37.3953 39.2304 39.478C39.4521 41.5915 40.4034 43.5847 41.909 45.0903C43.7259 46.9072 46.1126 47.8157 48.4993 47.8157C50.886 47.8157 53.2726 46.9072 55.0896 45.0903C58.7235 41.4564 58.7235 35.5435 55.0896 31.9097C53.5863 30.4065 51.5965 29.4556 49.4864 29.2321C47.4076 29.0118 45.294 29.501 43.5353 30.6095C43.3073 30.7532 43.2391 31.0546 43.3827 31.2825C43.5264 31.5106 43.8277 31.5788 44.0557 31.4352C47.3708 29.3457 51.6242 29.8245 54.3995 32.5998C57.6528 35.8532 57.6528 41.1468 54.3995 44.4001C51.1461 47.6536 45.8524 47.6536 42.5991 44.4001C39.8622 41.6633 39.3762 37.3071 41.4435 34.0421C41.5876 33.8144 41.5199 33.5129 41.2922 33.3688Z" fill="#7F5CA3"/>
<path d="M54.8434 38.9959H55.4452C55.7146 38.9959 55.9331 38.7774 55.9331 38.508C55.9331 38.2385 55.7146 38.02 55.4452 38.02H54.8434C54.574 38.02 54.3555 38.2385 54.3555 38.508C54.3555 38.7774 54.5739 38.9959 54.8434 38.9959Z" fill="#7F5CA3"/>
<path d="M41.0664 38.4921C41.0664 38.7616 41.2849 38.9801 41.5544 38.9801H42.1561C42.4256 38.9801 42.6441 38.7616 42.6441 38.4921C42.6441 38.2227 42.4256 38.0042 42.1561 38.0042H41.5544C41.2849 38.0042 41.0664 38.2226 41.0664 38.4921Z" fill="#7F5CA3"/>
<path d="M48.9954 32.1566V31.5549C48.9954 31.2854 48.7769 31.0669 48.5075 31.0669C48.238 31.0669 48.0195 31.2854 48.0195 31.5549V32.1566C48.0195 32.4261 48.238 32.6446 48.5075 32.6446C48.7769 32.6446 48.9954 32.4261 48.9954 32.1566Z" fill="#7F5CA3"/>
<path d="M48.0039 44.8434V45.4452C48.0039 45.7146 48.2224 45.9331 48.4919 45.9331C48.7613 45.9331 48.9798 45.7146 48.9798 45.4452V44.8434C48.9798 44.574 48.7613 44.3555 48.4919 44.3555C48.2224 44.3555 48.0039 44.5739 48.0039 44.8434Z" fill="#7F5CA3"/>
<path d="M46.0557 35.364C45.8651 35.1735 45.5562 35.1735 45.3656 35.364C45.175 35.5546 45.175 35.8636 45.3656 36.0542L47.0193 37.7079C46.8926 37.9441 46.8205 38.2138 46.8205 38.5C46.8205 39.4269 47.5746 40.181 48.5015 40.181C49.4285 40.181 50.1826 39.4269 50.1826 38.5C50.1826 38.2138 50.1105 37.9441 49.9838 37.7079L53.3206 34.3711C53.5111 34.1805 53.5111 33.8716 53.3206 33.681C53.13 33.4905 52.8211 33.4905 52.6305 33.681L49.2937 37.0178C49.0575 36.8911 48.7878 36.819 48.5015 36.819C48.2153 36.819 47.9456 36.8911 47.7094 37.0178L46.0557 35.364ZM49.2067 38.5C49.2067 38.8888 48.8904 39.2051 48.5015 39.2051C48.1127 39.2051 47.7964 38.8888 47.7964 38.5C47.7964 38.1112 48.1127 37.7949 48.5015 37.7949C48.8904 37.7949 49.2067 38.1112 49.2067 38.5Z" fill="#7F5CA3"/>
<path d="M42.5986 32.5995C42.6898 32.5088 42.742 32.3829 42.742 32.2546C42.742 32.1262 42.6898 32.0008 42.5986 31.9096C42.5078 31.8189 42.3824 31.7666 42.2536 31.7666C42.1252 31.7666 41.9994 31.8188 41.9086 31.9096C41.8179 32.0003 41.7656 32.1262 41.7656 32.2546C41.7656 32.3834 41.8178 32.5088 41.9086 32.5995C41.9994 32.6903 42.1252 32.7425 42.2536 32.7425C42.3824 32.7425 42.5078 32.6903 42.5986 32.5995Z" fill="#7F5CA3"/>
<path d="M51.8825 27.4579C52.0114 27.4579 52.1373 27.4061 52.228 27.3149C52.3187 27.2241 52.371 27.0987 52.371 26.9699C52.371 26.8416 52.3188 26.7157 52.228 26.6249C52.1373 26.5342 52.0114 26.4819 51.8825 26.4819C51.7542 26.4819 51.6283 26.5341 51.5376 26.6249C51.4468 26.7157 51.3945 26.8416 51.3945 26.9699C51.3945 27.0987 51.4467 27.2241 51.5376 27.3149C51.6283 27.4061 51.7542 27.4579 51.8825 27.4579Z" fill="#7F5CA3"/>
<defs>
<filter id="filter0_d" x="0" y="0" width="96" height="96" filterUnits="userSpaceOnUse" color-interpolation-filters="sRGB">
<feFlood flood-opacity="0" result="BackgroundImageFix"/>
<feColorMatrix in="SourceAlpha" type="matrix" values="0 0 0 0 0 0 0 0 0 0 0 0 0 0 0 0 0 0 127 0"/>
<feOffset dy="10"/>
<feGaussianBlur stdDeviation="10"/>
<feColorMatrix type="matrix" values="0 0 0 0 0.116252 0 0 0 0 0.0365799 0 0 0 0 0.204167 0 0 0 0.12 0"/>
<feBlend mode="normal" in2="BackgroundImageFix" result="effect1_dropShadow"/>
<feBlend mode="normal" in="SourceGraphic" in2="effect1_dropShadow" result="shape"/>
</filter>
<filter id="filter1_b" x="0" y="-10" width="96" height="96" filterUnits="userSpaceOnUse" color-interpolation-filters="sRGB">
<feFlood flood-opacity="0" result="BackgroundImageFix"/>
<feGaussianBlur in="BackgroundImage" stdDeviation="10"/>
<feComposite in2="SourceAlpha" operator="in" result="effect1_backgroundBlur"/>
<feBlend mode="normal" in="SourceGraphic" in2="effect1_backgroundBlur" result="shape"/>
</filter>
<filter id="filter2_b" x="5.83203" y="-4.16675" width="84.3333" height="84.3333" filterUnits="userSpaceOnUse" color-interpolation-filters="sRGB">
<feFlood flood-opacity="0" result="BackgroundImageFix"/>
<feGaussianBlur in="BackgroundImage" stdDeviation="10"/>
<feComposite in2="SourceAlpha" operator="in" result="effect1_backgroundBlur"/>
<feBlend mode="normal" in="SourceGraphic" in2="effect1_backgroundBlur" result="shape"/>
</filter>
</defs>
</svg>
